<?xml version="1.0" encoding="UTF-8"?>
<svg width="700pt" height="700pt" version="1.1" viewBox="0 0 700 700" xmlns="http://www.w3.org/2000/svg">
 <path d="m489.86 0.24609h-0.28125c-11.043 0-19.984 8.9609-19.984 19.984 0 11.023 8.9414 19.984 19.984 19.984h0.29688 71.645l-325.57 325.57c-3.6211 3.6211-5.8633 8.6094-5.8633 14.141 0 11.043 8.9609 19.984 19.984 19.984 5.5117 0 10.516-2.2383 14.121-5.8438l325.57-325.57v71.645 0.28125c0 11.043 8.9414 19.984 19.984 19.984 11.043 0 19.984-8.9414 19.984-19.984v-0.29688 0.015625-116.66c0.17578-0.96094 0.26172-2.1016 0.26172-3.2383 0-11.043-8.9414-19.984-19.984-19.984h-0.28125-119.89zm-399.65 119.89c-11.023 0-19.984 8.9414-19.984 19.984v399.65c0 11.043 8.9609 19.984 19.984 19.984h399.65c11.043 0 19.984-8.9414 19.984-19.984v-301.52-0.28125c0-11.043-8.9414-19.984-19.984-19.984s-19.984 8.9414-19.984 19.984v0.29688-0.015625 281.54h-359.7v-359.7h282.75 0.28125c11.043 0 19.984-8.9414 19.984-19.984s-8.9414-19.984-19.984-19.984h-0.29688z"/>
</svg>
